<svg class="diagram-root" style="background: #f5f6f6" xmlns="http://www.w3.org/2000/svg" xmlns:xlink="http://www.w3.org/1999/xlink"><style>.diagram-root { font-family: "Helvetica Neue", sans-serif; font-size: 12px; } .t { overflow: visible; } .t-bg { y: 40; fill: #fff;   } .th { fill: #005aa0;   } .tht { fill: #fff; font-size: 14px;  } .tf { fill: #323c46; overflow: visible; } .tf.pk { fill: #005aa0; font-weight: bold; } .tf.fk { font-weight: bold; } .ty { fill: #adb1b5; font-weight: normal; text-anchor: end; } .r { fill: transparent; stroke: #c3c3c3; stroke-width: 1; } .l { stroke: 1; } .i { fill: #c2c7ce; stroke: #c2c7ce; } .i.ix { fill: #afb3b6; stroke: #000; } .fa { fill: transparent; overflow: visible; } .fa .bg.hover { fill: #f7f7f7; } .c { cy: 12; r: 4; stroke: #d2d2dc; fill: #d2d2dc; } .hr { fill: transparent; stroke: #323c46; stroke-opacity: 0.035; stroke-width: 13; } .dc { stroke: #fa5a3c; fill: #fa5a3c; } .x { stroke: white; stroke-width: 1; } .hl .th { fill: #1b9bff; } .hl .tht {  } .fhl .bg { fill: #e7f4ff; } .fhls .bg {  } .r.hl { stroke: #1b9bff; } .dim { opacity: 0.25; }</style><g class="drawing-wrapper" transform="translate(345, -51) scale(1,1)"><g class="rs"><path d="M 338 490 m -1, 0 a 1,1 0 1,0 2,0 a 1,1 0 1,0 -2,0 M 338 490 m -0.5, 0 a 0.5,0.5 0 1,0 1,0 a 0.5,0.5 0 1,0 -1,0  M338 490 L338 490 326 490 M 338 496 m -1, 0 a 1,1 0 1,0 2,0 a 1,1 0 1,0 -2,0 M 338 496 m -0.5, 0 a 0.5,0.5 0 1,0 1,0 a 0.5,0.5 0 1,0 -1,0  M338 496 L338 496 331 490 338 484 M 338 484 m -1, 0 a 1,1 0 1,0 2,0 a 1,1 0 1,0 -2,0 M 338 484 m -0.5, 0 a 0.5,0.5 0 1,0 1,0 a 0.5,0.5 0 1,0 -1,0  M326 490 Q 287.69 490, 249.38 432 T 172.75 374 M 160.75 374 m -1, 0 a 1,1 0 1,0 2,0 a 1,1 0 1,0 -2,0 M 160.75 374 m -0.5, 0 a 0.5,0.5 0 1,0 1,0 a 0.5,0.5 0 1,0 -1,0  M160.75 374 L160.75 374 172.75 374 M166.75 380 L166.75 380 166.75 368" id="h860047585" class="r"></path><path d="M 338 515 m -1, 0 a 1,1 0 1,0 2,0 a 1,1 0 1,0 -2,0 M 338 515 m -0.5, 0 a 0.5,0.5 0 1,0 1,0 a 0.5,0.5 0 1,0 -1,0  M338 515 L338 515 326 515 M 338 521 m -1, 0 a 1,1 0 1,0 2,0 a 1,1 0 1,0 -2,0 M 338 521 m -0.5, 0 a 0.5,0.5 0 1,0 1,0 a 0.5,0.5 0 1,0 -1,0  M338 521 L338 521 331 515 338 509 M 338 509 m -1, 0 a 1,1 0 1,0 2,0 a 1,1 0 1,0 -2,0 M 338 509 m -0.5, 0 a 0.5,0.5 0 1,0 1,0 a 0.5,0.5 0 1,0 -1,0  M326 515 Q 287.69 515, 249.38 457 T 172.75 399 M 160.75 399 m -1, 0 a 1,1 0 1,0 2,0 a 1,1 0 1,0 -2,0 M 160.75 399 m -0.5, 0 a 0.5,0.5 0 1,0 1,0 a 0.5,0.5 0 1,0 -1,0  M160.75 399 L160.75 399 172.75 399 M166.75 405 L166.75 405 166.75 393" id="h664381832" class="r"></path><path d="M 542.74 540 m -1, 0 a 1,1 0 1,0 2,0 a 1,1 0 1,0 -2,0 M 542.74 540 m -0.5, 0 a 0.5,0.5 0 1,0 1,0 a 0.5,0.5 0 1,0 -1,0  M542.74 540 L542.74 540 554.74 540 M 542.74 546 m -1, 0 a 1,1 0 1,0 2,0 a 1,1 0 1,0 -2,0 M 542.74 546 m -0.5, 0 a 0.5,0.5 0 1,0 1,0 a 0.5,0.5 0 1,0 -1,0  M542.74 546 L542.74 546 549.74 540 542.74 534 M 542.74 534 m -1, 0 a 1,1 0 1,0 2,0 a 1,1 0 1,0 -2,0 M 542.74 534 m -0.5, 0 a 0.5,0.5 0 1,0 1,0 a 0.5,0.5 0 1,0 -1,0  M554.74 540 Q 587.06 540, 619.37 485 T 684 430 M 696 430 m -1, 0 a 1,1 0 1,0 2,0 a 1,1 0 1,0 -2,0 M 696 430 m -0.5, 0 a 0.5,0.5 0 1,0 1,0 a 0.5,0.5 0 1,0 -1,0  M696 430 L696 430 684 430 M690 436 L690 436 690 424" id="h4096733518" class="r"></path><path d="M 542.74 565 m -1, 0 a 1,1 0 1,0 2,0 a 1,1 0 1,0 -2,0 M 542.74 565 m -0.5, 0 a 0.5,0.5 0 1,0 1,0 a 0.5,0.5 0 1,0 -1,0  M542.74 565 L542.74 565 554.74 565 M 542.74 571 m -1, 0 a 1,1 0 1,0 2,0 a 1,1 0 1,0 -2,0 M 542.74 571 m -0.5, 0 a 0.5,0.5 0 1,0 1,0 a 0.5,0.5 0 1,0 -1,0  M542.74 571 L542.74 571 549.74 565 542.74 559 M 542.74 559 m -1, 0 a 1,1 0 1,0 2,0 a 1,1 0 1,0 -2,0 M 542.74 559 m -0.5, 0 a 0.5,0.5 0 1,0 1,0 a 0.5,0.5 0 1,0 -1,0  M554.74 565 Q 587.06 565, 619.37 510 T 684 455 M 696 455 m -1, 0 a 1,1 0 1,0 2,0 a 1,1 0 1,0 -2,0 M 696 455 m -0.5, 0 a 0.5,0.5 0 1,0 1,0 a 0.5,0.5 0 1,0 -1,0  M696 455 L696 455 684 455 M690 461 L690 461 690 449" id="h3710836421" class="r"></path><path d="M 347 288 m -1, 0 a 1,1 0 1,0 2,0 a 1,1 0 1,0 -2,0 M 347 288 m -0.5, 0 a 0.5,0.5 0 1,0 1,0 a 0.5,0.5 0 1,0 -1,0  M347 288 L347 288 335 288 M 347 294 m -1, 0 a 1,1 0 1,0 2,0 a 1,1 0 1,0 -2,0 M 347 294 m -0.5, 0 a 0.5,0.5 0 1,0 1,0 a 0.5,0.5 0 1,0 -1,0  M347 294 L347 294 340 288 347 282 M 347 282 m -1, 0 a 1,1 0 1,0 2,0 a 1,1 0 1,0 -2,0 M 347 282 m -0.5, 0 a 0.5,0.5 0 1,0 1,0 a 0.5,0.5 0 1,0 -1,0  M335 288 Q 294.44 288, 253.88 331 T 172.75 374 M 160.75 374 m -1, 0 a 1,1 0 1,0 2,0 a 1,1 0 1,0 -2,0 M 160.75 374 m -0.5, 0 a 0.5,0.5 0 1,0 1,0 a 0.5,0.5 0 1,0 -1,0  M160.75 374 L160.75 374 172.75 374 M166.75 380 L166.75 380 166.75 368" id="h3823076725" class="r"></path><path d="M 347 313 m -1, 0 a 1,1 0 1,0 2,0 a 1,1 0 1,0 -2,0 M 347 313 m -0.5, 0 a 0.5,0.5 0 1,0 1,0 a 0.5,0.5 0 1,0 -1,0  M347 313 L347 313 335 313 M 347 319 m -1, 0 a 1,1 0 1,0 2,0 a 1,1 0 1,0 -2,0 M 347 319 m -0.5, 0 a 0.5,0.5 0 1,0 1,0 a 0.5,0.5 0 1,0 -1,0  M347 319 L347 319 340 313 347 307 M 347 307 m -1, 0 a 1,1 0 1,0 2,0 a 1,1 0 1,0 -2,0 M 347 307 m -0.5, 0 a 0.5,0.5 0 1,0 1,0 a 0.5,0.5 0 1,0 -1,0  M335 313 Q 294.44 313, 253.88 356 T 172.75 399 M 160.75 399 m -1, 0 a 1,1 0 1,0 2,0 a 1,1 0 1,0 -2,0 M 160.75 399 m -0.5, 0 a 0.5,0.5 0 1,0 1,0 a 0.5,0.5 0 1,0 -1,0  M160.75 399 L160.75 399 172.75 399 M166.75 405 L166.75 405 166.75 393" id="h3024468123" class="r"></path><path d="M 547.74 338 m -1, 0 a 1,1 0 1,0 2,0 a 1,1 0 1,0 -2,0 M 547.74 338 m -0.5, 0 a 0.5,0.5 0 1,0 1,0 a 0.5,0.5 0 1,0 -1,0  M547.74 338 L547.74 338 559.74 338 M 547.74 344 m -1, 0 a 1,1 0 1,0 2,0 a 1,1 0 1,0 -2,0 M 547.74 344 m -0.5, 0 a 0.5,0.5 0 1,0 1,0 a 0.5,0.5 0 1,0 -1,0  M547.74 344 L547.74 344 554.74 338 547.74 332 M 547.74 332 m -1, 0 a 1,1 0 1,0 2,0 a 1,1 0 1,0 -2,0 M 547.74 332 m -0.5, 0 a 0.5,0.5 0 1,0 1,0 a 0.5,0.5 0 1,0 -1,0  M559.74 338 Q 590.81 338, 621.87 384 T 684 430 M 696 430 m -1, 0 a 1,1 0 1,0 2,0 a 1,1 0 1,0 -2,0 M 696 430 m -0.5, 0 a 0.5,0.5 0 1,0 1,0 a 0.5,0.5 0 1,0 -1,0  M696 430 L696 430 684 430 M690 436 L690 436 690 424" id="h4214327316" class="r"></path><path d="M 547.74 363 m -1, 0 a 1,1 0 1,0 2,0 a 1,1 0 1,0 -2,0 M 547.74 363 m -0.5, 0 a 0.5,0.5 0 1,0 1,0 a 0.5,0.5 0 1,0 -1,0  M547.74 363 L547.74 363 559.74 363 M 547.74 369 m -1, 0 a 1,1 0 1,0 2,0 a 1,1 0 1,0 -2,0 M 547.74 369 m -0.5, 0 a 0.5,0.5 0 1,0 1,0 a 0.5,0.5 0 1,0 -1,0  M547.74 369 L547.74 369 554.74 363 547.74 357 M 547.74 357 m -1, 0 a 1,1 0 1,0 2,0 a 1,1 0 1,0 -2,0 M 547.74 357 m -0.5, 0 a 0.5,0.5 0 1,0 1,0 a 0.5,0.5 0 1,0 -1,0  M559.74 363 Q 590.81 363, 621.87 409 T 684 455 M 696 455 m -1, 0 a 1,1 0 1,0 2,0 a 1,1 0 1,0 -2,0 M 696 455 m -0.5, 0 a 0.5,0.5 0 1,0 1,0 a 0.5,0.5 0 1,0 -1,0  M696 455 L696 455 684 455 M690 461 L690 461 690 449" id="h607229835" class="r"></path><path d="M -105.55 375 m -1, 0 a 1,1 0 1,0 2,0 a 1,1 0 1,0 -2,0 M -105.55 375 m -0.5, 0 a 0.5,0.5 0 1,0 1,0 a 0.5,0.5 0 1,0 -1,0  M-105.55 375 L-105.55 375 -93.55 375 M -105.55 381 m -1, 0 a 1,1 0 1,0 2,0 a 1,1 0 1,0 -2,0 M -105.55 381 m -0.5, 0 a 0.5,0.5 0 1,0 1,0 a 0.5,0.5 0 1,0 -1,0  M-105.55 381 L-105.55 381 -98.55 375 -105.55 369 M -105.55 369 m -1, 0 a 1,1 0 1,0 2,0 a 1,1 0 1,0 -2,0 M -105.55 369 m -0.5, 0 a 0.5,0.5 0 1,0 1,0 a 0.5,0.5 0 1,0 -1,0  M-93.55 375 Q -74.16 375, -54.77 374.5 T -16 374 M -4 374 m -1, 0 a 1,1 0 1,0 2,0 a 1,1 0 1,0 -2,0 M -4 374 m -0.5, 0 a 0.5,0.5 0 1,0 1,0 a 0.5,0.5 0 1,0 -1,0  M-4 374 L-4 374 -16 374 M-10 380 L-10 380 -10 368" id="h3695948473" class="r"></path><path d="M -105.55 400 m -1, 0 a 1,1 0 1,0 2,0 a 1,1 0 1,0 -2,0 M -105.55 400 m -0.5, 0 a 0.5,0.5 0 1,0 1,0 a 0.5,0.5 0 1,0 -1,0  M-105.55 400 L-105.55 400 -93.55 400 M -105.55 406 m -1, 0 a 1,1 0 1,0 2,0 a 1,1 0 1,0 -2,0 M -105.55 406 m -0.5, 0 a 0.5,0.5 0 1,0 1,0 a 0.5,0.5 0 1,0 -1,0  M-105.55 406 L-105.55 406 -98.55 400 -105.55 394 M -105.55 394 m -1, 0 a 1,1 0 1,0 2,0 a 1,1 0 1,0 -2,0 M -105.55 394 m -0.5, 0 a 0.5,0.5 0 1,0 1,0 a 0.5,0.5 0 1,0 -1,0  M-93.55 400 Q -74.16 400, -54.77 399.5 T -16 399 M -4 399 m -1, 0 a 1,1 0 1,0 2,0 a 1,1 0 1,0 -2,0 M -4 399 m -0.5, 0 a 0.5,0.5 0 1,0 1,0 a 0.5,0.5 0 1,0 -1,0  M-4 399 L-4 399 -16 399 M-10 405 L-10 405 -10 393" id="h3262528859" class="r"></path></g><g class="hrs"></g><g class="ts"><svg width="164.75" height="200" x="-4" y="317" id="h1274522334" class="t"><rect height="40" width="164.75" class="th"></rect><text x="13" y="25" class="tht">Document</text><rect height="160" width="164.75" class="t-bg" y="40"></rect><text x="13" y="61" class="tf pk">id<tspan x="151.75" class="ty">bigint</tspan></text><path d="M7,14A2,2 0 0,1 5,12A2,2 0 0,1 7,10A2,2 0 0,1 9,12A2,2 0 0,1 7,14M12.65,10C11.83,7.67 9.61,6 7, 6A6, 6 0 0, 0 1, 12A6, 6 0 0, 0 7, 18C9.61, 18 11.83, 16.33 12.65, 14H17V18H21V14H23V10H12.65Z" class="i pk" transform="translate(103.0625, 48) scale(0.65)"></path><text x="13" y="86" class="tf pk">collection<tspan x="151.75" class="ty">string</tspan></text><path d="M7,14A2,2 0 0,1 5,12A2,2 0 0,1 7,10A2,2 0 0,1 9,12A2,2 0 0,1 7,14M12.65,10C11.83,7.67 9.61,6 7, 6A6, 6 0 0, 0 1, 12A6, 6 0 0, 0 7, 18C9.61, 18 11.83, 16.33 12.65, 14H17V18H21V14H23V10H12.65Z" class="i pk" transform="translate(102.40625, 73) scale(0.65)"></path><text x="13" y="111" class="tf">title<tspan x="151.75" class="ty">string</tspan></text><text x="13" y="136" class="tf">abstract<tspan x="151.75" class="ty">string</tspan></text><text x="13" y="161" class="tf">fulltext<tspan x="151.75" class="ty">string?</tspan></text><text x="13" y="186" class="tf">date_inserted<tspan x="151.75" class="ty">datetime</tspan></text></svg><svg width="200.74" height="325" x="347" y="81" id="h3770079083" class="t"><rect height="40" width="200.74" class="th"></rect><text x="13" y="25" class="tht">Tag</text><rect height="285" width="200.74" class="t-bg" y="40"></rect><text x="13" y="61" class="tf pk">id<tspan x="187.74" class="ty">int</tspan></text><path d="M7,14A2,2 0 0,1 5,12A2,2 0 0,1 7,10A2,2 0 0,1 9,12A2,2 0 0,1 7,14M12.65,10C11.83,7.67 9.61,6 7, 6A6, 6 0 0, 0 1, 12A6, 6 0 0, 0 7, 18C9.61, 18 11.83, 16.33 12.65, 14H17V18H21V14H23V10H12.65Z" class="i pk" transform="translate(155.066171875, 48) scale(0.65)"></path><text x="13" y="86" class="tf">ent_type<tspan x="187.74" class="ty">string</tspan></text><path d="M22,18V22H18V19H15V16H12L9.74,13.74C9.19,13.91 8.61,14 8,14A6,6 0 0,1 2,8A6,6 0 0,1 8,2A6,6 0 0,1 14,8C14,8.61 13.91, 9.19 13.74, 9.74L22, 18M7, 5A2, 2 0 0, 0 5, 7A2, 2 0 0, 0 7, 9A2, 2 0 0, 0 9, 7A2, 2 0 0, 0 7, 5Z" class="i uq" transform="translate(142.39625, 75.5) scale(0.5)"></path><text x="13" y="111" class="tf">start<tspan x="187.74" class="ty">int</tspan></text><path d="M22,18V22H18V19H15V16H12L9.74,13.74C9.19,13.91 8.61,14 8,14A6,6 0 0,1 2,8A6,6 0 0,1 8,2A6,6 0 0,1 14,8C14,8.61 13.91, 9.19 13.74, 9.74L22, 18M7, 5A2, 2 0 0, 0 5, 7A2, 2 0 0, 0 7, 9A2, 2 0 0, 0 9, 7A2, 2 0 0, 0 7, 5Z" class="i uq" transform="translate(159.066171875, 100.5) scale(0.5)"></path><text x="13" y="136" class="tf">end<tspan x="187.74" class="ty">int</tspan></text><path d="M22,18V22H18V19H15V16H12L9.74,13.74C9.19,13.91 8.61,14 8,14A6,6 0 0,1 2,8A6,6 0 0,1 8,2A6,6 0 0,1 14,8C14,8.61 13.91, 9.19 13.74, 9.74L22, 18M7, 5A2, 2 0 0, 0 5, 7A2, 2 0 0, 0 7, 9A2, 2 0 0, 0 9, 7A2, 2 0 0, 0 7, 5Z" class="i uq" transform="translate(159.066171875, 125.5) scale(0.5)"></path><text x="13" y="161" class="tf">ent_id<tspan x="187.74" class="ty">string</tspan></text><path d="M22,18V22H18V19H15V16H12L9.74,13.74C9.19,13.91 8.61,14 8,14A6,6 0 0,1 2,8A6,6 0 0,1 8,2A6,6 0 0,1 14,8C14,8.61 13.91, 9.19 13.74, 9.74L22, 18M7, 5A2, 2 0 0, 0 5, 7A2, 2 0 0, 0 7, 9A2, 2 0 0, 0 9, 7A2, 2 0 0, 0 7, 5Z" class="i uq" transform="translate(142.39625, 150.5) scale(0.5)"></path><text x="13" y="186" class="tf">ent_str<tspan x="187.74" class="ty">string</tspan></text><text x="13" y="211" class="tf fk">document_id<tspan x="187.74" class="ty">int</tspan></text><path d="M22,18V22H18V19H15V16H12L9.74,13.74C9.19,13.91 8.61,14 8,14A6,6 0 0,1 2,8A6,6 0 0,1 8,2A6,6 0 0,1 14,8C14,8.61 13.91, 9.19 13.74, 9.74L22, 18M7, 5A2, 2 0 0, 0 5, 7A2, 2 0 0, 0 7, 9A2, 2 0 0, 0 9, 7A2, 2 0 0, 0 7, 5Z" class="i uq" transform="translate(159.066171875, 200.5) scale(0.5)"></path><text x="13" y="236" class="tf fk">document_collection<tspan x="187.74" class="ty">string</tspan></text><path d="M22,18V22H18V19H15V16H12L9.74,13.74C9.19,13.91 8.61,14 8,14A6,6 0 0,1 2,8A6,6 0 0,1 8,2A6,6 0 0,1 14,8C14,8.61 13.91, 9.19 13.74, 9.74L22, 18M7, 5A2, 2 0 0, 0 5, 7A2, 2 0 0, 0 7, 9A2, 2 0 0, 0 9, 7A2, 2 0 0, 0 7, 5Z" class="i uq" transform="translate(142.39625, 225.5) scale(0.5)"></path><text x="13" y="261" class="tf fk">tagger_name<tspan x="187.74" class="ty">string</tspan></text><text x="13" y="286" class="tf fk">tagger_version<tspan x="187.74" class="ty">string</tspan></text><text x="13" y="311" class="tf">date_inserted<tspan x="187.74" class="ty">datetime</tspan></text></svg><svg width="204.74" height="200" x="338" y="433" id="h3283450007" class="t"><rect height="40" width="204.74" class="th"></rect><text x="13" y="25" class="tht">DocTaggedBy</text><rect height="160" width="204.74" class="t-bg" y="40"></rect><text x="13" y="61" class="tf pk">document_id<tspan x="191.74" class="ty">int</tspan></text><path d="M7,14A2,2 0 0,1 5,12A2,2 0 0,1 7,10A2,2 0 0,1 9,12A2,2 0 0,1 7,14M12.65,10C11.83,7.67 9.61,6 7, 6A6, 6 0 0, 0 1, 12A6, 6 0 0, 0 7, 18C9.61, 18 11.83, 16.33 12.65, 14H17V18H21V14H23V10H12.65Z" class="i pk" transform="translate(159.066171875, 48) scale(0.65)"></path><text x="13" y="86" class="tf pk">document_collection<tspan x="191.74" class="ty">string</tspan></text><path d="M7,14A2,2 0 0,1 5,12A2,2 0 0,1 7,10A2,2 0 0,1 9,12A2,2 0 0,1 7,14M12.65,10C11.83,7.67 9.61,6 7, 6A6, 6 0 0, 0 1, 12A6, 6 0 0, 0 7, 18C9.61, 18 11.83, 16.33 12.65, 14H17V18H21V14H23V10H12.65Z" class="i pk" transform="translate(142.39625, 73) scale(0.65)"></path><text x="13" y="111" class="tf pk">tagger_name<tspan x="191.74" class="ty">string</tspan></text><path d="M7,14A2,2 0 0,1 5,12A2,2 0 0,1 7,10A2,2 0 0,1 9,12A2,2 0 0,1 7,14M12.65,10C11.83,7.67 9.61,6 7, 6A6, 6 0 0, 0 1, 12A6, 6 0 0, 0 7, 18C9.61, 18 11.83, 16.33 12.65, 14H17V18H21V14H23V10H12.65Z" class="i pk" transform="translate(142.39625, 98) scale(0.65)"></path><text x="13" y="136" class="tf pk">tagger_version<tspan x="191.74" class="ty">string</tspan></text><path d="M7,14A2,2 0 0,1 5,12A2,2 0 0,1 7,10A2,2 0 0,1 9,12A2,2 0 0,1 7,14M12.65,10C11.83,7.67 9.61,6 7, 6A6, 6 0 0, 0 1, 12A6, 6 0 0, 0 7, 18C9.61, 18 11.83, 16.33 12.65, 14H17V18H21V14H23V10H12.65Z" class="i pk" transform="translate(142.39625, 123) scale(0.65)"></path><text x="13" y="161" class="tf pk">ent_type<tspan x="191.74" class="ty">string</tspan></text><path d="M7,14A2,2 0 0,1 5,12A2,2 0 0,1 7,10A2,2 0 0,1 9,12A2,2 0 0,1 7,14M12.65,10C11.83,7.67 9.61,6 7, 6A6, 6 0 0, 0 1, 12A6, 6 0 0, 0 7, 18C9.61, 18 11.83, 16.33 12.65, 14H17V18H21V14H23V10H12.65Z" class="i pk" transform="translate(142.39625, 148) scale(0.65)"></path><text x="13" y="186" class="tf">date_inserted<tspan x="191.74" class="ty">datetime</tspan></text></svg><svg width="134.03" height="100" x="696" y="373" id="h1585650235" class="t"><rect height="40" width="134.03" class="th"></rect><text x="13" y="25" class="tht">Tagger</text><rect height="60" width="134.03" class="t-bg" y="40"></rect><text x="13" y="61" class="tf pk">name<tspan x="121.03" class="ty">string</tspan></text><path d="M7,14A2,2 0 0,1 5,12A2,2 0 0,1 7,10A2,2 0 0,1 9,12A2,2 0 0,1 7,14M12.65,10C11.83,7.67 9.61,6 7, 6A6, 6 0 0, 0 1, 12A6, 6 0 0, 0 7, 18C9.61, 18 11.83, 16.33 12.65, 14H17V18H21V14H23V10H12.65Z" class="i pk" transform="translate(71.68625, 48) scale(0.65)"></path><text x="13" y="86" class="tf pk">version<tspan x="121.03" class="ty">string</tspan></text><path d="M7,14A2,2 0 0,1 5,12A2,2 0 0,1 7,10A2,2 0 0,1 9,12A2,2 0 0,1 7,14M12.65,10C11.83,7.67 9.61,6 7, 6A6, 6 0 0, 0 1, 12A6, 6 0 0, 0 7, 18C9.61, 18 11.83, 16.33 12.65, 14H17V18H21V14H23V10H12.65Z" class="i pk" transform="translate(71.68625, 73) scale(0.65)"></path></svg><svg width="217.45" height="500" x="-323" y="293" id="h3387193311" class="t"><rect height="40" width="217.45" class="th"></rect><text x="13" y="25" class="tht">Predication</text><rect height="460" width="217.45" class="t-bg" y="40"></rect><text x="13" y="61" class="tf pk">id<tspan x="204.45" class="ty">bigint</tspan></text><path d="M7,14A2,2 0 0,1 5,12A2,2 0 0,1 7,10A2,2 0 0,1 9,12A2,2 0 0,1 7,14M12.65,10C11.83,7.67 9.61,6 7, 6A6, 6 0 0, 0 1, 12A6, 6 0 0, 0 7, 18C9.61, 18 11.83, 16.33 12.65, 14H17V18H21V14H23V10H12.65Z" class="i pk" transform="translate(155.7625, 48) scale(0.65)"></path><text x="13" y="86" class="tf fk">document_id<tspan x="204.45" class="ty">bigint</tspan></text><text x="13" y="111" class="tf fk">document_collection<tspan x="204.45" class="ty">string</tspan></text><text x="13" y="136" class="tf">subject_openie<tspan x="204.45" class="ty">string</tspan></text><text x="13" y="161" class="tf">subject_id<tspan x="204.45" class="ty">string</tspan></text><text x="13" y="186" class="tf">subject_str<tspan x="204.45" class="ty">string</tspan></text><text x="13" y="211" class="tf">subject_type<tspan x="204.45" class="ty">string</tspan></text><text x="13" y="236" class="tf">predicate<tspan x="204.45" class="ty">string</tspan></text><text x="13" y="261" class="tf">predicate_cleaned<tspan x="204.45" class="ty">string?</tspan></text><text x="13" y="286" class="tf">predicate_canonicalized<tspan x="204.45" class="ty">string?</tspan></text><text x="13" y="311" class="tf">object_openie<tspan x="204.45" class="ty">string</tspan></text><text x="13" y="336" class="tf">object_id<tspan x="204.45" class="ty">string</tspan></text><text x="13" y="361" class="tf">object_str<tspan x="204.45" class="ty">string</tspan></text><text x="13" y="386" class="tf">object_typestring<tspan x="204.45" class="ty">int</tspan></text><text x="13" y="411" class="tf">confidence<tspan x="204.45" class="ty">float?</tspan></text><text x="13" y="436" class="tf">sentence<tspan x="204.45" class="ty">string</tspan></text><text x="13" y="461" class="tf">openie_version<tspan x="204.45" class="ty">string</tspan></text><text x="13" y="486" class="tf">date_inserted<tspan x="204.45" class="ty">datetime</tspan></text></svg></g></g></svg>